<svg width="151" height="151" viewBox="0 0 151 151" fill="none" xmlns="http://www.w3.org/2000/svg">
<g clip-path="url(#clip0_2554_40568)">
<path d="M0 151H150.973V0H0V151Z" fill="#0084FF"/>
<path d="M61.2914 89.2422H52.8711V63.9814V38.7206H61.2914V63.9814V89.2422Z" fill="#FF9800"/>
<path d="M127.392 55.5643V72.4048C127.392 77.0553 123.622 80.8251 118.971 80.8251C114.321 80.8251 110.551 77.0553 110.551 72.4048V55.5643H102.131V73.3626C102.131 82.6634 109.671 90.2031 118.971 90.2031C123.705 90.2031 125.579 88.6608 127.392 86.9869V89.2455C127.392 93.8958 123.622 97.6658 118.971 97.6658C114.321 97.6658 110.551 93.8958 110.551 89.2455H102.131C102.131 98.5463 109.671 106.086 118.971 106.086C128.272 106.086 135.812 98.5463 135.812 89.2455V55.5643H127.392Z" fill="#FF9800"/>
<path d="M32.4626 81.3101C27.543 81.3101 23.5551 77.3222 23.5551 72.4026C23.5551 67.4831 27.543 63.4952 32.4626 63.4952C37.3821 63.4952 41.3701 67.4831 41.3701 72.4026C41.3701 77.3222 37.3821 81.3101 32.4626 81.3101ZM32.9498 54.5875C29.3709 54.5875 25.8788 55.9667 23.5551 58.7586V55.5621H15.1348V105.031H23.5551V86.0467C25.8788 88.8386 29.3709 90.2176 32.9498 90.2176C42.7889 90.2176 50.765 82.2416 50.765 72.4026C50.765 62.5637 42.7889 54.5875 32.9498 54.5875" fill="#FF9800"/>
<path d="M81.7106 63.4962C86.6302 63.4962 90.6181 67.4841 90.6181 72.4037C90.6181 77.3231 86.6302 81.3111 81.7106 81.3111C76.7912 81.3111 72.8031 77.3231 72.8031 72.4037C72.8031 67.4841 76.7912 63.4962 81.7106 63.4962ZM81.2234 90.2188C84.8023 90.2188 88.2944 88.8395 90.6181 86.0477V89.2442H99.0385V55.5631H90.6181V58.7597C88.2944 55.9677 84.8023 54.5886 81.2234 54.5886C71.3844 54.5886 63.4082 62.5647 63.4082 72.4037C63.4082 82.2426 71.3844 90.2188 81.2234 90.2188" fill="#FF9800"/>
</g>
<defs>
<clipPath id="clip0_2554_40568">
<rect width="151" height="151" rx="32" fill="white"/>
</clipPath>
</defs>
</svg>
